<?xml version="1.0" encoding="utf-8"?>
<!-- Generator: Adobe Illustrator 21.1.0, SVG Export Plug-In . SVG Version: 6.00 Build 0)  -->
<svg version="1.1"
	 id="Layer_1" xmlns:cc="http://creativecommons.org/ns#" xmlns:dc="http://purl.org/dc/elements/1.1/" xmlns:inkscape="http://www.inkscape.org/namespaces/inkscape" xmlns:rdf="http://www.w3.org/1999/02/22-rdf-syntax-ns#" xmlns:sodipodi="http://sodipodi.sourceforge.net/DTD/sodipodi-0.dtd" xmlns:svg="http://www.w3.org/2000/svg"
	 xmlns="http://www.w3.org/2000/svg" xmlns:xlink="http://www.w3.org/1999/xlink" x="0px" y="0px" viewBox="0 0 73.9 74"
	 style="enable-background:new 0 0 73.9 74;" xml:space="preserve">
<style type="text/css">
	.st0{fill:#194C89;}
	.st1{fill:#E6E7E8;}
	.st2{fill:#225BA0;}
	.st3{fill:#FFFFFF;}
</style>
<g>
	<path class="st0" d="M0,40.7v26.7C0,71,2.9,74,6.6,74h60.8c3.6,0,6.6-3,6.6-6.6V6.6C74,3,71,0,67.4,0H6.6C2.9,0,0,3,0,6.6V40.7z"/>
	<path class="st1" d="M61.6,26.7H23v-9.3h33.6c2.8,0,5,2.2,5,5V26.7z"/>
	<g>
		<path class="st2" d="M5.1,13h25.7c1.5,0,2.9,0.7,3.9,1.8l5,6.1c0.9,1.2,2.4,1.8,3.9,1.8H69c2.8,0,5,2.2,5,4.9v41.4
			c0,2.7-2.2,4.9-5,4.9H5.4C2.6,74,0,71.8,0,69.1L0.1,18C0,15.3,2.3,13,5.1,13z"/>
	</g>
</g>
<g id="_x30_rfAHW.tif">
	<g>
		<path class="st3" d="M44.3,40.8c0.3,0.1,0.6,0.1,0.9,0.2c0.8,0.2,1.5,0.7,1.7,1.5c0.1,0.3,0.1,0.7,0.1,1c-0.1,0.5-0.6,0.8-1,0.6
			c-0.2-0.1-0.3-0.3-0.1-0.5c0.1-0.1,0.2-0.2,0.3-0.2c0.2-0.2,0.2-0.4,0-0.6c-0.2-0.1-0.3-0.2-0.5-0.3c-1.2-0.4-2.3-0.4-3.5-0.1
			c-1.5,0.4-3,1-4.2,1.9c-0.3,0.2-0.6,0.5-0.8,0.8c-0.3,0.4-0.2,0.8,0.3,0.9c0.5,0.2,1.1,0.3,1.6,0.4c1,0.2,2.1,0.3,3.1,0.5
			c0.3,0.1,0.7,0.2,1,0.4c0.6,0.3,0.7,0.8,0.6,1.4c-0.1,0.3-0.2,0.6-0.3,0.9c0.2-0.1,0.4-0.2,0.6-0.3c0.7-0.5,1.4-0.9,2.1-1.4
			c0.3-0.2,0.5-0.3,0.8-0.5c0.6-0.3,1-0.1,1.2,0.5c0,0.2,0,0.4,0,0.6c-0.2,0.4-0.3,0.9-0.5,1.3c-0.1,0.2-0.1,0.3-0.1,0.5
			c0,0.3,0.1,0.4,0.4,0.3c0.2-0.1,0.4-0.2,0.6-0.3c0.9-0.6,1.7-1.3,2.6-2c0.6-0.5,1.3-0.9,2.1-1.2c0.5-0.2,1-0.3,1.5-0.2
			c0.4,0.1,0.8,0.4,0.8,0.8c0,0.2,0,0.4-0.1,0.6c-0.4,1.1-0.8,2.3-1.4,3.3c0.2,0.1,0.3,0.1,0.5,0.2c0.1,0.1,0.3,0.2,0.3,0.3
			c0.1,0.2,0,0.3-0.2,0.3c-0.2,0-0.4-0.1-0.6-0.1c-0.1,0-0.2,0-0.3-0.1c-0.3,0.7-0.7,1.3-1.2,1.9c-0.6,0.7-1.3,1.4-2,2
			c-0.4,0.3-0.8,0.5-1.2,0.7c-0.1,0-0.2,0-0.3,0c-0.6-0.3-0.8-0.8-0.6-1.5c0.2-0.4,0.4-0.9,0.6-1.3c0.6-0.9,1.4-1.7,2.3-2.4
			c0.5-0.4,1-0.5,1.6-0.3c0.2,0,0.2,0,0.3-0.1c0.4-0.6,0.7-1.3,0.9-2.1c0,0,0-0.1,0-0.1c0,0,0,0,0-0.1c-0.3,0.3-0.7,0.5-1,0.8
			c-0.7,0.5-1.4,0.9-2.1,1.4c-0.1,0.1-0.3,0.2-0.5,0.2c-0.5,0.2-0.9,0-1-0.5c0-0.1,0-0.2-0.1-0.3c-0.5,0.3-0.9,0.6-1.4,0.9
			c-0.2,0.1-0.4,0.3-0.6,0.4c-0.3,0.1-0.6,0.1-0.9-0.2c-0.3-0.3-0.4-0.7-0.3-1.1c0.1-0.5,0.2-1,0.3-1.5c0-0.2,0-0.4,0-0.6
			c-0.4,0.3-0.8,0.6-1.2,0.8c-1.2,0.7-2.5,1.5-3.8,2.2c-1.3,0.7-2.6,1.3-4,1.8c-0.5,0.2-1.1,0.3-1.7,0.3c-0.1,0-0.2,0-0.3,0
			c-0.2,0-0.2-0.1-0.2-0.3c0-0.1,0-0.2,0.2-0.3c0.4-0.2,0.7-0.4,1.1-0.5c1.2-0.6,2.3-1.1,3.5-1.7c0.5-0.3,0.9-0.6,1.3-1
			c0.3-0.2,0.5-0.5,0.5-0.9c0-0.2,0-0.5-0.2-0.6c-0.3-0.3-0.6-0.4-1-0.5c-0.8-0.2-1.6-0.4-2.4-0.6c-0.6-0.2-1.2-0.4-1.8-0.6
			c-0.2-0.1-0.4-0.3-0.6-0.4c-0.3-0.3-0.3-0.7-0.1-1c0.3-0.6,0.8-1,1.2-1.5c1.6-1.3,3.4-2.2,5.5-2.6c0.2,0,0.4-0.1,0.7-0.1
			C43.6,40.8,44,40.8,44.3,40.8z M52.5,52.3c-0.1,0-0.2,0-0.3,0c-0.4,0.2-0.9,0.4-1.3,0.6c-0.7,0.4-1.3,1-1.8,1.7
			c-0.2,0.3-0.3,0.6-0.2,1c0,0.2,0.2,0.3,0.4,0.2c0.1-0.1,0.2-0.1,0.4-0.2c1-0.8,1.8-1.7,2.5-2.7C52.2,52.7,52.3,52.5,52.5,52.3z
			 M53.8,48.2C53.8,48.2,53.8,48.2,53.8,48.2c-0.2,0-0.4,0-0.6,0.1c-1.1,0.5-2,1.2-2.9,2.1c-0.1,0.1-0.1,0.2-0.2,0.3
			c-0.1,0.1,0,0.2,0.1,0.2c0.1,0,0.3,0,0.4-0.1c1.1-0.5,2-1.1,2.8-2C53.6,48.6,53.7,48.4,53.8,48.2z"/>
		<path class="st3" d="M8.2,43.9c1,0,2.1,0,3.1,0c1,0,1.9,0.2,2.8,0.7c0.8,0.5,1.4,1.2,1.6,2.2c0.2,1,0.2,2-0.2,2.9
			c-0.5,1.2-1.5,1.8-2.7,2.2c-0.5,0.1-1.1,0.2-1.6,0.2c-1,0-2,0-2.9,0C8.2,49.4,8.2,46.6,8.2,43.9z M10,45.5c0,0.1,0,0.2,0,0.3
			c0,1,0,2,0,3c0,0.5,0,0.9,0,1.4c0,0.1,0,0.2,0.1,0.2c0.6,0,1.2,0,1.8-0.1c0.8-0.1,1.4-0.5,1.7-1.2c0.1-0.3,0.2-0.7,0.2-1
			c0.1-1.1-0.5-2-1.5-2.4C11.7,45.5,10.9,45.6,10,45.5z"/>
		<path class="st3" d="M19.4,52.2c-1.2,0-2.2-0.4-2.8-1.5c-0.9-1.6-0.3-4,2.1-4.4c1-0.2,1.9,0,2.7,0.6c0.8,0.6,1.1,1.5,1.1,2.5
			C22.5,51.3,20.9,52.3,19.4,52.2z M20.8,49.3c0-0.9-0.5-1.5-1.4-1.5c-0.9,0-1.4,0.6-1.4,1.4c0,0.9,0.5,1.5,1.4,1.5
			C20.2,50.7,20.8,50.2,20.8,49.3z"/>
		<path class="st3" d="M28.7,46.5c0.6,0,1.2,0,1.7,0c0,0.1,0,0.1,0,0.2c0,0.9,0,1.9,0,2.8c0,0.2,0,0.3,0,0.5
			c0.1,0.4,0.3,0.7,0.7,0.7c0.5,0.1,0.9-0.1,1.1-0.5c0.1-0.3,0.2-0.7,0.2-1c0-0.8,0-1.6,0-2.4c0-0.1,0-0.2,0-0.3c0.6,0,1.1,0,1.7,0
			c0,1.9,0,3.7,0,5.6c-0.5,0-1.1,0-1.6,0c0-0.2,0-0.5,0-0.7c-0.1,0.1-0.1,0.1-0.1,0.1C32,52,31.6,52.2,31,52.2c-0.3,0-0.6,0-0.8-0.1
			c-0.8-0.2-1.2-0.7-1.3-1.6c0-0.4-0.1-0.7-0.1-1.1c0-0.9,0-1.9,0-2.8C28.7,46.6,28.7,46.6,28.7,46.5z"/>
		<path class="st3" d="M28.2,47.1c-0.4,0.4-0.7,0.8-1.1,1.2c-0.7-0.5-1.4-0.5-1.9,0c-0.5,0.5-0.5,1.5,0,2.1c0.5,0.6,1.2,0.6,1.9,0
			c0.4,0.4,0.7,0.8,1.1,1.2c-0.5,0.7-1.9,1-3,0.6c-1.2-0.4-2.1-1.4-2.1-2.6c0-1.4,0.7-2.5,1.9-2.9C26.1,46.1,27.6,46.4,28.2,47.1z"
			/>
		<path class="st3" d="M58,49.3c0.4-0.3,0.8-0.6,1.2-0.8c0.4-0.2,0.8-0.5,1.3-0.6c0.8-0.3,1.2,0.1,1.3,0.9c0.1,0.6-0.1,1.1-0.2,1.7
			c0,0.2,0,0.3,0,0.5c0,0.2,0.1,0.3,0.3,0.2c0.2-0.1,0.4-0.2,0.6-0.3c0.5-0.4,0.9-0.9,1.4-1.3c0.1-0.1,0.2-0.2,0.3-0.2
			c0.2,0.1,0.3,0.2,0.2,0.4c0,0.1-0.1,0.3-0.2,0.4c-0.2,0.2-0.4,0.5-0.6,0.7c-0.6,0.5-1.2,0.9-1.9,1.2c-0.5,0.2-0.9,0-1.1-0.5
			c-0.2-0.4-0.2-0.9-0.1-1.3c0-0.3,0-0.6,0-0.9c0-0.3-0.2-0.4-0.5-0.3c-0.2,0.1-0.5,0.2-0.7,0.3c-0.7,0.5-1.3,1.1-2,1.6
			c-0.3,0.3-0.6,0.5-0.9,0.8c-0.1,0-0.1,0.1-0.2,0.1c-0.2,0.1-0.4,0.2-0.6,0c-0.2-0.2-0.3-0.4-0.2-0.7c0.1-0.2,0.2-0.4,0.3-0.6
			c0.2-0.4,0.5-0.7,0.8-1c0,0,0.1-0.1,0.1-0.1c-0.2,0-0.4,0-0.8,0.3c-0.2,0.1-0.5,0.3-0.7,0.4c0,0-0.1,0-0.1-0.1
			c0.1-0.2,0.1-0.4,0.2-0.6c0.2-0.5,0.6-0.8,1-1.1c0.2-0.2,0.5-0.3,0.8-0.4c0.4-0.2,0.7,0,0.9,0.2c0.3,0.2,0.4,0.5,0.2,0.9
			C58.1,49,58.1,49.1,58,49.3z"/>
		<path class="st3" d="M48.2,44.5c0-0.4,0.3-0.7,0.6-0.7c0.3,0,0.6,0.3,0.6,0.7c0,0.4-0.3,0.7-0.6,0.7
			C48.5,45.2,48.2,44.9,48.2,44.5z"/>
	</g>
</g>
</svg>
