<?xml version="1.0" encoding="utf-8"?>
<!-- Generator: Adobe Illustrator 21.1.0, SVG Export Plug-In . SVG Version: 6.00 Build 0)  -->
<svg version="1.1"
	 id="Layer_1" xmlns:cc="http://creativecommons.org/ns#" xmlns:dc="http://purl.org/dc/elements/1.1/" xmlns:inkscape="http://www.inkscape.org/namespaces/inkscape" xmlns:rdf="http://www.w3.org/1999/02/22-rdf-syntax-ns#" xmlns:sodipodi="http://sodipodi.sourceforge.net/DTD/sodipodi-0.dtd" xmlns:svg="http://www.w3.org/2000/svg"
	 xmlns="http://www.w3.org/2000/svg" xmlns:xlink="http://www.w3.org/1999/xlink" x="0px" y="0px" viewBox="0 0 74 74"
	 style="enable-background:new 0 0 74 74;" xml:space="preserve">
<style type="text/css">
	.st0{fill:url(#Rounded_Rectangle_2_copy_6_1_);}
	.st1{fill:#FFFFFF;}
</style>
<linearGradient id="Rounded_Rectangle_2_copy_6_1_" gradientUnits="userSpaceOnUse" x1="37" y1="4891.5" x2="37" y2="4965.5" gradientTransform="matrix(1 0 0 1 0 -4891.5)">
	<stop  offset="0" style="stop-color:#225BA0"/>
	<stop  offset="1" style="stop-color:#194C89"/>
</linearGradient>
<path id="Rounded_Rectangle_2_copy_6" class="st0" d="M5,0h64c2.7,0,4.9,2.2,5,4.9V69c0,2.7-2.2,4.9-4.9,5H5c-2.7,0-4.9-2.2-5-4.9V5
	C0,2.3,2.2,0.1,5,0L5,0z"/>
<g id="_x30_rfAHW.tif">
	<g>
		<path class="st1" d="M45.4,20c0.3,0.1,0.6,0.1,0.9,0.2c0.8,0.2,1.5,0.7,1.7,1.5c0.1,0.3,0.1,0.7,0.1,1c-0.1,0.5-0.6,0.8-1,0.6
			c-0.2-0.1-0.3-0.3-0.1-0.5c0.1-0.1,0.2-0.2,0.3-0.2c0.2-0.2,0.2-0.4,0-0.6c-0.2-0.1-0.3-0.2-0.5-0.3c-1.2-0.4-2.3-0.4-3.5-0.1
			c-1.5,0.4-3,1-4.2,1.9c-0.3,0.2-0.6,0.5-0.8,0.8c-0.3,0.4-0.2,0.8,0.3,0.9c0.5,0.2,1.1,0.3,1.6,0.4c1,0.2,2.1,0.3,3.1,0.5
			c0.3,0.1,0.7,0.2,1,0.4c0.6,0.3,0.7,0.8,0.6,1.4c-0.1,0.3-0.2,0.6-0.3,0.9c0.2-0.1,0.4-0.2,0.6-0.3c0.7-0.5,1.4-0.9,2.1-1.4
			c0.3-0.2,0.5-0.3,0.8-0.5c0.6-0.3,1-0.1,1.2,0.5c0,0.2,0,0.4,0,0.6c-0.2,0.4-0.3,0.9-0.5,1.3c-0.1,0.2-0.1,0.3-0.1,0.5
			c0,0.3,0.1,0.4,0.4,0.3c0.2-0.1,0.4-0.2,0.6-0.3c0.9-0.6,1.7-1.3,2.6-2c0.6-0.5,1.3-0.9,2.1-1.2c0.5-0.2,1-0.3,1.5-0.2
			c0.4,0.1,0.8,0.4,0.8,0.8c0,0.2,0,0.4-0.1,0.6c-0.4,1.1-0.8,2.3-1.4,3.3c0.2,0.1,0.3,0.1,0.5,0.2c0.1,0.1,0.3,0.2,0.3,0.3
			c0.1,0.2,0,0.3-0.2,0.3c-0.2,0-0.4-0.1-0.6-0.1c-0.1,0-0.2,0-0.3-0.1c-0.3,0.7-0.7,1.3-1.2,1.9c-0.6,0.7-1.3,1.4-2,2
			c-0.4,0.3-0.8,0.5-1.2,0.7c-0.1,0-0.2,0-0.3,0c-0.6-0.3-0.8-0.8-0.6-1.5c0.2-0.4,0.4-0.9,0.6-1.3c0.6-0.9,1.4-1.7,2.3-2.4
			c0.5-0.4,1-0.5,1.6-0.3c0.2,0,0.2,0,0.3-0.1c0.4-0.6,0.7-1.3,0.9-2.1c0,0,0-0.1,0-0.1c0,0,0,0,0-0.1c-0.3,0.3-0.7,0.5-1,0.8
			c-0.7,0.5-1.4,0.9-2.1,1.4c-0.1,0.1-0.3,0.2-0.5,0.2c-0.5,0.2-0.9,0-1-0.5c0-0.1,0-0.2-0.1-0.3c-0.5,0.3-0.9,0.6-1.4,0.9
			c-0.2,0.1-0.4,0.3-0.6,0.4c-0.3,0.1-0.6,0.1-0.9-0.2c-0.3-0.3-0.4-0.7-0.3-1.1c0.1-0.5,0.2-1,0.3-1.5c0-0.2,0-0.4,0-0.6
			c-0.4,0.3-0.8,0.6-1.2,0.8c-1.2,0.7-2.5,1.5-3.8,2.2c-1.3,0.7-2.6,1.3-4,1.8c-0.5,0.2-1.1,0.3-1.7,0.3c-0.1,0-0.2,0-0.3,0
			c-0.2,0-0.2-0.1-0.2-0.3c0-0.1,0-0.2,0.2-0.3c0.4-0.2,0.7-0.4,1.1-0.5c1.2-0.6,2.3-1.1,3.5-1.7c0.5-0.3,0.9-0.6,1.3-1
			c0.3-0.2,0.5-0.5,0.5-0.9c0-0.2,0-0.5-0.2-0.6c-0.3-0.3-0.6-0.4-1-0.5c-0.8-0.2-1.6-0.4-2.4-0.6c-0.6-0.2-1.2-0.4-1.8-0.6
			c-0.2-0.1-0.4-0.3-0.6-0.4c-0.3-0.3-0.3-0.7-0.1-1c0.3-0.6,0.8-1,1.2-1.5c1.6-1.3,3.4-2.2,5.5-2.6c0.2,0,0.4-0.1,0.7-0.1
			C44.7,20,45,20,45.4,20z M53.5,31.4c-0.1,0-0.2,0-0.3,0c-0.4,0.2-0.9,0.4-1.3,0.6c-0.7,0.4-1.3,1-1.8,1.7c-0.2,0.3-0.3,0.6-0.2,1
			c0,0.2,0.2,0.3,0.4,0.2c0.1-0.1,0.2-0.1,0.4-0.2c1-0.8,1.8-1.7,2.5-2.7C53.3,31.9,53.4,31.7,53.5,31.4z M54.9,27.4
			C54.9,27.4,54.8,27.3,54.9,27.4c-0.2,0-0.4,0-0.6,0.1c-1.1,0.5-2,1.2-2.9,2.1c-0.1,0.1-0.1,0.2-0.2,0.3c-0.1,0.1,0,0.2,0.1,0.2
			c0.1,0,0.3,0,0.4-0.1c1.1-0.5,2-1.1,2.8-2C54.7,27.8,54.8,27.6,54.9,27.4z"/>
		<path class="st1" d="M9.3,23c1,0,2.1,0,3.1,0c1,0,1.9,0.2,2.8,0.7c0.8,0.5,1.4,1.2,1.6,2.2c0.2,1,0.2,2-0.2,2.9
			c-0.5,1.2-1.5,1.8-2.7,2.2c-0.5,0.1-1.1,0.2-1.6,0.2c-1,0-2,0-2.9,0C9.3,28.5,9.3,25.8,9.3,23z M11.1,24.7c0,0.1,0,0.2,0,0.3
			c0,1,0,2,0,3c0,0.5,0,0.9,0,1.4c0,0.1,0,0.2,0.1,0.2c0.6,0,1.2,0,1.8-0.1c0.8-0.1,1.4-0.5,1.7-1.2c0.1-0.3,0.2-0.7,0.2-1
			c0.1-1.1-0.5-2-1.5-2.4C12.7,24.6,11.9,24.7,11.1,24.7z"/>
		<path class="st1" d="M20.5,31.4c-1.2,0-2.2-0.4-2.8-1.5c-0.9-1.6-0.3-4,2.1-4.4c1-0.2,1.9,0,2.7,0.6c0.8,0.6,1.1,1.5,1.1,2.5
			C23.5,30.4,22,31.5,20.5,31.4z M21.9,28.5c0-0.9-0.5-1.5-1.4-1.5c-0.9,0-1.4,0.6-1.4,1.4c0,0.9,0.5,1.5,1.4,1.5
			C21.3,29.9,21.9,29.3,21.9,28.5z"/>
		<path class="st1" d="M29.8,25.6c0.6,0,1.2,0,1.7,0c0,0.1,0,0.1,0,0.2c0,0.9,0,1.9,0,2.8c0,0.2,0,0.3,0,0.5
			c0.1,0.4,0.3,0.7,0.7,0.7c0.5,0.1,0.9-0.1,1.1-0.5c0.1-0.3,0.2-0.7,0.2-1c0-0.8,0-1.6,0-2.4c0-0.1,0-0.2,0-0.3c0.6,0,1.1,0,1.7,0
			c0,1.9,0,3.7,0,5.6c-0.5,0-1.1,0-1.6,0c0-0.2,0-0.5,0-0.7c-0.1,0.1-0.1,0.1-0.1,0.1c-0.4,0.5-0.8,0.7-1.4,0.7
			c-0.3,0-0.6,0-0.8-0.1c-0.8-0.2-1.2-0.7-1.3-1.6c0-0.4-0.1-0.7-0.1-1.1c0-0.9,0-1.9,0-2.8C29.8,25.8,29.8,25.7,29.8,25.6z"/>
		<path class="st1" d="M29.3,26.2c-0.4,0.4-0.7,0.8-1.1,1.2c-0.7-0.5-1.4-0.5-1.9,0c-0.5,0.5-0.5,1.5,0,2.1c0.5,0.6,1.2,0.6,1.9,0
			c0.4,0.4,0.7,0.8,1.1,1.2c-0.5,0.7-1.9,1-3,0.6c-1.2-0.4-2.1-1.4-2.1-2.6c0-1.4,0.7-2.5,1.9-2.9C27.2,25.3,28.7,25.5,29.3,26.2z"
			/>
		<path class="st1" d="M59.1,28.4c0.4-0.3,0.8-0.6,1.2-0.8c0.4-0.2,0.8-0.5,1.3-0.6c0.8-0.3,1.2,0.1,1.3,0.9
			c0.1,0.6-0.1,1.1-0.2,1.7c0,0.2,0,0.3,0,0.5c0,0.2,0.1,0.3,0.3,0.2c0.2-0.1,0.4-0.2,0.6-0.3c0.5-0.4,0.9-0.9,1.4-1.3
			c0.1-0.1,0.2-0.2,0.3-0.2c0.2,0.1,0.3,0.2,0.2,0.4c0,0.1-0.1,0.3-0.2,0.4c-0.2,0.2-0.4,0.5-0.6,0.7c-0.6,0.5-1.2,0.9-1.9,1.2
			c-0.5,0.2-0.9,0-1.1-0.5c-0.2-0.4-0.2-0.9-0.1-1.3c0-0.3,0-0.6,0-0.9c0-0.3-0.2-0.4-0.5-0.3c-0.2,0.1-0.5,0.2-0.7,0.3
			c-0.7,0.5-1.3,1.1-2,1.6c-0.3,0.3-0.6,0.5-0.9,0.8c-0.1,0-0.1,0.1-0.2,0.1c-0.2,0.1-0.4,0.2-0.6,0c-0.2-0.2-0.3-0.4-0.2-0.7
			c0.1-0.2,0.2-0.4,0.3-0.6c0.2-0.4,0.5-0.7,0.8-1c0,0,0.1-0.1,0.1-0.1c-0.2,0-0.4,0-0.8,0.3c-0.2,0.1-0.5,0.3-0.7,0.4
			c0,0-0.1,0-0.1-0.1c0.1-0.2,0.1-0.4,0.2-0.6c0.2-0.5,0.6-0.8,1-1.1c0.2-0.2,0.5-0.3,0.8-0.4c0.4-0.2,0.7,0,0.9,0.2
			c0.3,0.2,0.4,0.5,0.2,0.9C59.2,28.2,59.2,28.3,59.1,28.4z"/>
		<path class="st1" d="M49.3,23.7c0-0.4,0.3-0.7,0.6-0.7c0.3,0,0.6,0.3,0.6,0.7c0,0.4-0.3,0.7-0.6,0.7C49.6,24.3,49.3,24,49.3,23.7z
			"/>
	</g>
</g>
</svg>
